<?xml version="1.0" encoding="UTF-8" standalone="no"?>
<!-- Created with Inkscape (http://www.inkscape.org/) -->

<svg
   xmlns:dc="http://purl.org/dc/elements/1.1/"
   xmlns:cc="http://creativecommons.org/ns#"
   xmlns:rdf="http://www.w3.org/1999/02/22-rdf-syntax-ns#"
   xmlns:svg="http://www.w3.org/2000/svg"
   xmlns="http://www.w3.org/2000/svg"
   xmlns:sodipodi="http://sodipodi.sourceforge.net/DTD/sodipodi-0.dtd"
   xmlns:inkscape="http://www.inkscape.org/namespaces/inkscape"
   width="375"
   height="667"
   viewBox="0 0 99.21875 176.47708"
   version="1.1"
   id="svg8"
   inkscape:version="0.92.4 (5da689c313, 2019-01-14)"
   sodipodi:docname="apple-touch-startup-image.svg"
   inkscape:export-filename="C:\coding\haenchsplanner-firebase\public\images\icon-167x167.png"
   inkscape:export-xdpi="334"
   inkscape:export-ydpi="334">
  <defs
     id="defs2" />
  <sodipodi:namedview
     id="base"
     pagecolor="#ffffff"
     bordercolor="#666666"
     borderopacity="1.0"
     inkscape:pageopacity="0.0"
     inkscape:pageshadow="2"
     inkscape:zoom="0.9899495"
     inkscape:cx="43.717589"
     inkscape:cy="245.15089"
     inkscape:document-units="mm"
     inkscape:current-layer="layer1"
     showgrid="false"
     units="px"
     inkscape:window-width="2194"
     inkscape:window-height="1277"
     inkscape:window-x="-11"
     inkscape:window-y="-11"
     inkscape:window-maximized="1" />
  <metadata
     id="metadata5">
    <rdf:RDF>
      <cc:Work
         rdf:about="">
        <dc:format>image/svg+xml</dc:format>
        <dc:type
           rdf:resource="http://purl.org/dc/dcmitype/StillImage" />
        <dc:title></dc:title>
      </cc:Work>
    </rdf:RDF>
  </metadata>
  <g
     inkscape:label="Layer 1"
     inkscape:groupmode="layer"
     id="layer1"
     transform="translate(0,-120.5229)">
    <g
       aria-label="hp"
       style="font-style:normal;font-variant:normal;font-weight:normal;font-stretch:normal;font-size:10.21123505px;line-height:1.25;font-family:'Kaushan Script';-inkscape-font-specification:'Kaushan Script';letter-spacing:0px;word-spacing:0px;fill:#1070ca;fill-opacity:1;stroke:none;stroke-width:0.21273406"
       id="text822"
       transform="matrix(4.6547479,0,0,4.6547479,21.744801,-1147.6599)">
      <path
         d="m 1.2900705,292.77636 q 0,-0.35739 0.071479,-0.83732 0.071479,-0.49014 0.2042247,-1.04155 0.1429573,-0.5514 0.3267595,-1.15387 0.1940135,-0.60246 0.4288719,-1.20492 0.2042247,-0.5412 0.4697168,-1.0926 0.2757033,-0.55141 0.5922516,-1.0824 0.3165483,-0.53098 0.6535191,-1.01091 0.347182,-0.47993 0.694364,-0.87816 0.1633797,0 0.3471819,0.0408 0.1940135,0.0409 0.3676045,0.11232 0.1838022,0.0613 0.3267595,0.15317 0.1531686,0.0919 0.2450697,0.18381 -0.7658427,0.78626 -1.3785168,1.59295 -0.6126741,0.79647 -0.9700673,1.50105 -0.1940135,0.38803 -0.3573932,0.725 -0.1531685,0.33697 -0.2859146,0.67394 -0.1327461,0.32676 -0.2450696,0.66373 -0.1021124,0.32676 -0.1940135,0.69436 1.9605571,-2.50175 2.910202,-2.50175 0.2654921,0 0.5718291,0.17359 0.3063371,0.17359 0.5411955,0.46972 -0.3165483,0.34718 -0.653519,0.83732 -0.3369708,0.49014 -0.6228854,0.99049 -0.2757033,0.49014 -0.4595056,0.91901 -0.1735909,0.41866 -0.1735909,0.62289 0,0.10211 0.030634,0.14295 0.030634,0.0306 0.132746,0.0306 0.1531685,0 0.2450697,-0.0408 0.091901,-0.0408 0.1123235,-0.0408 0.051056,0.0817 0.061267,0.11232 0.010211,0.0306 0.010211,0.0511 0,0.0408 -0.1225348,0.12253 -0.1225349,0.0715 -0.2961259,0.15317 -0.1633797,0.0715 -0.3267595,0.13275 -0.1633797,0.0613 -0.2450696,0.0613 -0.1021124,0 -0.2042247,-0.0613 -0.1021124,-0.0511 -0.1838022,-0.14296 -0.071479,-0.0919 -0.1225349,-0.20423 -0.040845,-0.11232 -0.040845,-0.23485 0,-0.15317 0.08169,-0.4493 0.091901,-0.30634 0.2450696,-0.70457 0.1531685,-0.40845 0.3676045,-0.88838 0.2144359,-0.47993 0.4595056,-0.98028 0,-0.0408 -0.040845,-0.0408 -0.030634,0 -0.1633797,0.0817 -0.1225349,0.0817 -0.2348585,0.16337 -0.3676044,0.27571 -0.7454201,0.68416 -0.3676045,0.39824 -0.7249977,0.87816 -0.347182,0.47993 -0.6637303,1.02113 -0.306337,0.53098 -0.5309842,1.07218 -0.030634,0.0715 -0.091901,0.13274 -0.061267,0.0613 -0.1021124,0.0613 -0.030634,0 -0.091901,-0.0715 -0.051056,-0.0715 -0.1021123,-0.1838 -0.040845,-0.10211 -0.08169,-0.21444 -0.040845,-0.11232 -0.040845,-0.19401 z"
         style="fill:#1070ca;fill-opacity:1;stroke-width:0.21273406"
         id="path814"
         inkscape:connector-curvature="0" />
      <path
         d="m 5.8399735,296.32987 q -0.1429573,-0.0408 -0.1633797,-0.30634 -0.040845,-0.13274 -0.061267,-0.31655 -0.010211,-0.1838 -0.010211,-0.41866 0,-0.21443 0.071479,-0.59225 0.071479,-0.3676 0.1940134,-0.83732 0.1327461,-0.46972 0.3165483,-1.01091 0.1838022,-0.55141 0.4084494,-1.11303 0.2757034,-0.70457 0.4799281,-1.21513 0.2042247,-0.52078 0.3369707,-0.89859 0.1429573,-0.37782 0.2246472,-0.62289 0.091901,-0.24507 0.1429573,-0.41866 0.040845,-0.12253 0.1225348,-0.29612 0.08169,-0.17359 0.1838022,-0.34719 0.1123236,-0.1838 0.2246472,-0.33697 0.1123236,-0.16338 0.2042247,-0.24507 0.3573932,0.0511 0.6739415,0.18381 0.3165483,0.13274 0.388027,0.25528 -0.1429573,0.13274 -0.3267596,0.41866 -0.1838022,0.2757 -0.3573932,0.61267 -0.173591,0.32676 -0.3165483,0.67394 -0.1429573,0.34719 -0.2144359,0.61268 0.1021123,-0.17359 0.2654921,-0.37782 0.1633798,-0.20422 0.5003505,-0.56162 0.3778157,-0.38802 0.7045752,-0.59225 0.3369706,-0.21443 0.5820406,-0.21443 0.388027,0 0.633096,0.21443 0.255281,0.21444 0.255281,0.55141 0,0.73521 -0.245069,1.46021 -0.24507,0.71478 -0.704576,1.29682 -0.173591,0.22465 -0.408449,0.42887 -0.2348584,0.20423 -0.4901393,0.36761 -0.2552808,0.15317 -0.5003505,0.24507 -0.2450696,0.0919 -0.4390831,0.0919 -0.1838022,0 -0.3267595,-0.0715 -0.1327461,-0.0817 -0.1838022,-0.19401 0.3982381,-0.23486 0.7760538,-0.65352 0.3778157,-0.41866 0.694364,-0.95986 0.3267595,-0.5514 0.5616178,-1.1845 0.24507,-0.6331 0.367605,-1.28662 -0.388027,0.20423 -0.7045756,0.4493 -0.3063371,0.23486 -0.6126741,0.62288 -0.3676045,0.4493 -0.5820404,0.725 -0.214436,0.2757 -0.3573933,0.46972 -0.132746,0.19401 -0.2246471,0.3676 -0.08169,0.16338 -0.1838023,0.40845 -0.1429572,0.32676 -0.3369707,0.86796 -0.1838022,0.53098 -0.3880269,1.19471 -0.1940135,0.66373 -0.3982382,1.40915 -0.1940135,0.75563 -0.3778157,1.50105 -0.1123236,-0.0204 -0.1940135,-0.16338 -0.08169,-0.0919 -0.1225348,-0.13274 -0.030634,-0.0409 -0.08169,-0.0613 z"
         style="fill:#1070ca;fill-opacity:1;stroke-width:0.21273406"
         id="path816"
         inkscape:connector-curvature="0" />
    </g>
  </g>
</svg>
