<?xml version="1.0" standalone="no"?>
<!DOCTYPE svg PUBLIC "-//W3C//DTD SVG 20010904//EN"
 "http://www.w3.org/TR/2001/REC-SVG-20010904/DTD/svg10.dtd">
<svg version="1.0" xmlns="http://www.w3.org/2000/svg"
 width="700.000000pt" height="700.000000pt" viewBox="0 0 700.000000 700.000000"
 preserveAspectRatio="xMidYMid meet">
<metadata>
Created by potrace 1.11, written by Peter Selinger 2001-2013
</metadata>
<g transform="translate(0.000000,700.000000) scale(0.100000,-0.100000)"
fill="#000000" stroke="none">
<path d="M2568 6857 c-24 -29 -45 -54 -48 -57 -11 -9 -154 -192 -226 -287
-134 -178 -266 -380 -485 -743 -104 -173 -323 -603 -399 -785 -23 -55 -48
-113 -55 -130 -51 -117 -189 -488 -263 -710 -55 -164 -179 -582 -208 -700 -1
-5 -13 -55 -27 -110 -14 -55 -28 -118 -33 -140 -4 -22 -8 -42 -9 -45 -1 -6
-13 -64 -20 -100 -14 -70 -55 -333 -61 -385 -3 -33 -8 -68 -9 -77 -2 -9 -7
-78 -10 -152 -6 -132 -6 -135 25 -228 103 -302 179 -316 290 -53 18 44 75 161
125 260 356 703 912 1398 1375 1717 68 47 142 88 160 88 20 0 9 -32 -65 -186
-41 -86 -75 -158 -75 -159 0 -2 -22 -49 -49 -106 -26 -57 -83 -187 -126 -289
-42 -102 -81 -194 -86 -205 -41 -95 -162 -438 -184 -524 -26 -103 -29 -125
-30 -221 0 -84 3 -102 27 -150 15 -31 43 -74 62 -96 47 -55 144 -106 201 -106
44 0 171 36 189 53 6 5 17 9 26 9 28 0 273 127 308 159 35 33 36 50 6 98 -17
27 -23 28 -72 7 -49 -21 -183 -28 -207 -10 -109 79 160 707 573 1336 132 201
327 462 414 555 21 22 38 44 38 48 0 5 -26 36 -57 69 -204 213 -450 317 -648
273 -63 -13 -73 -16 -145 -47 -74 -32 -90 -40 -185 -103 -215 -144 -482 -393
-760 -710 -33 -37 -65 -73 -70 -79 -22 -24 -213 -256 -275 -333 -35 -45 -66
-81 -67 -79 -4 4 70 273 105 381 34 104 115 320 143 382 10 24 19 45 19 48 0
35 314 688 417 868 50 86 194 317 222 353 9 12 23 32 31 44 48 72 234 317 344
455 163 202 326 389 503 574 51 53 93 101 93 106 0 13 -92 80 -167 122 -57 32
-258 108 -311 118 -15 3 -38 7 -52 10 -14 4 -50 8 -80 11 -30 3 -63 7 -72 9
-12 2 -33 -15 -60 -48z"/>
<path d="M4654 5274 c-66 -70 -208 -289 -273 -420 -32 -66 -87 -200 -121 -299
-58 -168 -222 -625 -240 -670 -5 -11 -38 -96 -74 -190 -35 -93 -126 -325 -201
-515 -213 -536 -280 -721 -408 -1115 -73 -226 -164 -563 -193 -715 -49 -265
-52 -294 -50 -490 3 -167 7 -212 30 -314 20 -95 32 -126 53 -148 15 -15 32
-28 39 -28 14 0 83 -68 123 -120 14 -19 31 -41 38 -47 13 -15 63 -35 63 -27 0
31 270 1064 346 1324 14 47 41 139 60 205 36 124 57 191 150 480 154 474 332
904 452 1090 72 113 331 447 578 745 195 237 360 374 633 529 85 48 82 53 45
-101 -2 -10 -6 -26 -8 -35 -2 -10 -9 -38 -15 -63 -7 -25 -14 -54 -16 -64 -11
-47 -70 -231 -106 -331 -161 -445 -361 -812 -616 -1133 -138 -174 -351 -373
-477 -447 -25 -15 -46 -33 -46 -41 0 -21 59 -83 99 -103 104 -53 252 -48 417
14 74 27 250 115 299 149 327 226 540 465 718 809 116 222 217 530 243 737 3
25 7 51 9 58 11 31 20 168 20 297 0 137 -1 141 -32 208 -42 87 -115 160 -208
203 -86 41 -124 49 -240 48 -68 -1 -105 -7 -150 -24 -86 -32 -226 -118 -330
-201 -180 -144 -484 -472 -601 -649 -26 -38 -48 -70 -50 -70 -8 0 81 248 133
370 64 152 199 419 254 505 10 17 22 37 26 45 16 36 168 253 208 298 l44 49
-32 33 c-36 37 -172 105 -289 144 -66 22 -105 32 -243 61 -13 3 -32 -10 -61
-41z"/>
</g>
</svg>
